<svg xmlns="http://www.w3.org/2000/svg"
    viewBox="0 0 700 550" width="70"
    height="55" style="position: absolute; top: 0px; left: 0px;">
    <polygon
        points="681.01 202.76 681.01 194.86 715.27 207.19 714.52 286.72 678.75 296.13 678.75 290.1 707.74 281.45 707.74 213.59 681.01 202.76"
        style="fill: rgb(23, 18, 19);"></polygon>
    <polygon
        points="495.22 258.57 453.72 460.18 68.31 445.77 76.78 253.49 495.22 258.57"
        style="fill: rgb(23, 18, 19);"></polygon>
    <path
        d="M177.07,422.66v0H160.12v.06c-.31,0-.62,0-.94.07-14.46,1.8-25.4,23.22-25.4,48s10.94,46.16,25.4,48a16.27,16.27,0,0,0,3.82,0h12c15.64,1.95,29.28-19.46,29.28-48C204.27,443.5,191.82,422.76,177.07,422.66Z"
        style="fill: rgb(23, 18, 19);"></path>
    <path
        d="M283.24,427.18v0H266.29v0c-.32,0-.63,0-.94.08-14.46,1.8-25.41,23.22-25.41,48s10.95,46.16,25.41,48a15.75,15.75,0,0,0,3.82,0h12c15.63,1.95,29.27-19.45,29.27-48C310.43,448,298,427.28,283.24,427.18Z"
        style="fill: rgb(23, 18, 19);"></path>
    <path
        d="M324.22,429.37v0H307.27v.06c-.31,0-.62,0-.94.07-14.46,1.81-25.4,23.23-25.4,48s10.94,46.16,25.4,48a15.75,15.75,0,0,0,3.82,0h12c15.64,2,29.27-19.46,29.27-48C351.41,450.2,339,429.46,324.22,429.37Z"
        style="fill: rgb(23, 18, 19);"></path>
    <polygon
        points="61.53 411.05 60.68 500.83 366.47 501.68 368.17 395.8 143.69 400.88 61.53 411.05"
        style="fill: rgb(23, 18, 19);"></polygon>
    <path
        d="M361.29,397.4l6,15.06-286.87,7.9S65.25,432.9,67,475.25H42.1l.57-49.69s2.82-9.6,11.86-10.17S361.29,397.4,361.29,397.4Z"
        style="fill: rgb(59, 58, 62);"></path>
    <polygon
        points="361.16 107.06 297.22 102.55 42.1 166.92 42.1 415.39 297.22 402.97 362.85 402.97 361.16 107.06"
        style="fill: red;"></polygon>
    <polygon
        points="365.96 106.78 297.22 102.55 297.22 404.1 367.65 404.94 365.96 106.78"
        style="fill: rgb(147, 0, 0);"></polygon>
    <polygon
        points="297.22 384.33 366.24 386.03 363.98 117.51 297.22 119.2 297.22 384.33"
        style="fill: rgb(167, 172, 172);"></polygon>
    <path d="M297.22,118.36,56,179.35V303.58L297.22,384.9Z"
        style="fill: rgb(254, 254, 254);"></path>
    <polygon points="297.22 383.77 56.03 301.89 56.03 398.45 297.22 383.77"
        style="fill: rgb(228, 230, 231);"></polygon>
    <polygon
        points="123.14 428 121.72 422.64 104.78 422.64 103.84 518.7 119.65 518.7 123.14 428"
        style="fill: rgb(23, 18, 19);"></polygon>
    <path
        d="M148.92,470.73c0,28.51-13.63,49.92-29.27,48-14.46-1.81-25.4-23.23-25.4-48s10.94-46.16,25.4-48C135.29,420.82,148.92,442.23,148.92,470.73Z"
        style="fill: rgb(23, 18, 19);"></path>
    <path
        d="M133.11,470.73c0,28.51-13.64,49.92-29.27,48-14.46-1.81-25.4-23.23-25.4-48s10.94-46.16,25.4-48C119.47,420.82,133.11,442.23,133.11,470.73Z"
        style="fill: rgb(59, 58, 62);"></path>
    <path
        d="M122,470.73c0,17.63-8.1,30.87-17.38,29.67C96,499.28,89.54,486,89.54,470.73s6.5-28.55,15.09-29.66C113.91,439.86,122,453.1,122,470.73Z"
        style="fill: rgb(254, 254, 255);"></path>
    <path
        d="M115,470.73c0,10-4.58,17.45-9.82,16.77-4.86-.63-8.53-8.12-8.53-16.77s3.67-16.13,8.53-16.76C110.37,453.29,115,460.77,115,470.73Z"
        style="fill: rgb(59, 58, 62);"></path>
    <polygon
        points="417.91 423.45 416.19 416.89 395.47 416.89 394.32 534.36 413.65 534.36 417.91 423.45"
        style="fill: rgb(23, 18, 19);"></polygon>
    <path
        d="M449.45,475.7c0,34.86-16.68,61-35.8,58.65C396,532.15,382.59,506,382.59,475.7s13.38-56.44,31.06-58.65C432.77,414.67,449.45,440.85,449.45,475.7Z"
        style="fill: rgb(23, 18, 19);"></path>
    <path
        d="M430.11,475.7c0,34.86-16.67,61-35.79,58.65-17.68-2.2-31.07-28.39-31.07-58.65s13.39-56.44,31.07-58.65C413.44,414.67,430.11,440.85,430.11,475.7Z"
        style="fill: rgb(59, 58, 62);"></path>
    <path
        d="M416.53,475.7c0,21.56-9.9,37.75-21.25,36.28-10.5-1.36-18.45-17.57-18.45-36.28s7.95-34.91,18.45-36.27C406.63,438,416.53,454.14,416.53,475.7Z"
        style="fill: rgb(254, 254, 255);"></path>
    <path
        d="M407.9,475.7c0,12.19-5.6,21.34-12,20.5-5.93-.77-10.43-9.92-10.43-20.5S390,456,395.89,455.2C402.3,454.37,407.9,463.52,407.9,475.7Z"
        style="fill: rgb(59, 58, 62);"></path>
    <path
        d="M648.93,416.92v0H628.21V417l-1.16.09C609.37,419.26,596,445.45,596,475.7s13.38,56.45,31.06,58.65a18.71,18.71,0,0,0,4.67,0h14.67c19.11,2.39,35.79-23.79,35.79-58.65C682.18,442.4,667,417,648.93,416.92Z"
        style="fill: rgb(23, 18, 19);"></path>
    <path
        d="M351.22,421.21s-10.91,1.41-10.91,9.32v48.84s-3,17.23-18.29,17.23-148.27-4.9-148.27-4.9-13.46-9.41-13.46-24.09l-.36-29.74S159.2,427,173.39,427,351.22,421.21,351.22,421.21Z"
        style="fill: rgb(255, 115, 119);"></path>
    <path
        d="M335.94,430.53c0-7.91,10.92-9.32,10.92-9.32s-163.46,4.61-177.66,4.61-13.46,10.92-13.46,10.92l.12,19.29,180.08.72Z"
        style="fill: red;"></path>
    <path
        d="M155.86,456l.06,11.58c0,14.68,13.47,24.09,13.47,24.09s133,4.9,148.27,4.9,18.28-17.23,18.28-17.23V456.75Z"
        style="fill: rgb(200, 0, 0);"></path>
    <path
        d="M360.92,494.9h-8.28l.37-73s2.64-5.27,12.43-5.27l-35.77-62.5V190.34s1.88-85.46,34.26-100.14,50.45-15.81,50.45-15.81L577.11,87.75S609.39,96.6,615,116.18c0,0,45.92,8.28,55.34,33.12l8.28,27.86,1.13,28.62,17.32,102,3.76.75v30.12s5.27-3.39,6.4,0,0,55.72,0,55.72.75,5.27-4.52,5.27H691.84v11.67s10.35.94,14.3,4.89,1.51,45.55,1.51,45.55l-2.26,10.92,2.63,3.77.38,21.08s-8.47,7.53-15.81,7.53H436.78s-4.52-1.7-4.52-3.67V446.9s-6.49-43.48-39.25-43.48c0,0-22.87-.28-30.77,25.7A104.65,104.65,0,0,0,360,448.6C360,457.92,360.92,494.9,360.92,494.9Z"
        style="fill: red;"></path>
    <path
        d="M463.88,179.8l11,101.65h8.48V317H471.51v71.15H440.17s-9.32-48.28-97.42-39.81V194.2Z"
        style="fill: rgb(200, 0, 0);"></path>
    <path
        d="M469,277.68l-11.2-67-62,2.25s-8,0-8.63,7,0,40,0,40,3.19,7.75,8.63,9.25S469,277.68,469,277.68Z"
        style="fill: rgb(167, 172, 172);"></path>
    <path
        d="M472.92,289.35,462.75,175.28,679.6,190.53,696,292.18s-9,6.21-11.3,6.21S472.92,289.35,472.92,289.35Z"
        style="fill: rgb(23, 18, 19);"></path>
    <path
        d="M464.45,281.45l-9.88-75.67-54.78,2.54s-7.06,0-7.62,7.9,0,45.18,0,45.18,2.82,8.75,7.62,10.45S464.45,281.45,464.45,281.45Z"
        style="fill: rgb(23, 18, 19);"></path>
    <path
        d="M675.84,205.21l-46.31,5.27s-7.53,4.14-7.15,10.17,6.77,62.11,6.77,62.11L689,284.65Z"
        style="fill: rgb(167, 172, 172);"></path>
    <polygon
        points="464.16 173.02 360.37 184.32 329.3 185.45 329.92 195.05 356.64 194.48 467.27 180.36 464.16 173.02"
        style="fill: rgb(23, 18, 19);"></polygon>
    <path
        d="M675.08,171.33s9,14.12,10.17,17.22.28,10.73-5.93,11S488,187.33,488,187.33s-26.36-9.41-29-16.57,4.52-13.17,4.52-13.17Z"
        style="fill: rgb(59, 58, 62);"></path>
    <path
        d="M681.29,193.73S526,183.4,495.57,180.67c2.17,4.3,4.28,8.67,6.35,13.07l177.87,9s5.27-.75,6-3S681.29,193.73,681.29,193.73Z"
        style="fill: rgb(167, 172, 172);"></path>
    <path
        d="M690.33,306.58l-28.8,107.57-3.67,13s-2.26,11-13.27,11h-96s-9.6-2.82-13-11.58S491.27,298.1,491.27,298.1Z"
        style="fill: rgb(254, 254, 255);"></path>
    <path
        d="M695.41,293.87s4.52,14.31,3,15.81-9.78,2.64-9.78,2.64l-196.15-7.91s-19.25-4.16-19.2-12.42c0-7.16-.8-7.16-.8-7.16Z"
        style="fill: rgb(59, 58, 62);"></path>
    <path
        d="M677,328.13l-2.11,7.18a2.85,2.85,0,0,1-2.72,2H633.49a2.86,2.86,0,0,0-2.18,1l-5.82,7a2.86,2.86,0,0,1-2.18,1H573.74a2.84,2.84,0,0,1-2.28-1.15l-5.83-7.87a2.85,2.85,0,0,0-2.28-1.15H523.46a2.84,2.84,0,0,1-2.43-1.37l-5.17-8.54a2.84,2.84,0,0,1,2.47-4.31l156,2.49A2.84,2.84,0,0,1,677,328.13Z"
        style="fill: rgb(147, 0, 0);"></path>
    <path
        d="M658.09,363.62l-2.7,7.28a2.83,2.83,0,0,1-2.7,1.71H546.35a2.85,2.85,0,0,1-2.62-1.54l-4.42-9.42c-.77-1.65.64-3.45,2.69-3.41l113.46,2.14C657.36,360.42,658.68,362.05,658.09,363.62Z"
        style="fill: rgb(59, 58, 62);"></path>
    <path
        d="M650.18,392.54l-2.09,5.62a2.83,2.83,0,0,1-2.7,1.71H554.1a2.87,2.87,0,0,1-2.63-1.54L548,390.88c-.78-1.65.64-3.45,2.68-3.41l96.88,1.83C649.44,389.34,650.77,391,650.18,392.54Z"
        style="fill: rgb(59, 58, 62);"></path>
    <path
        d="M642.28,420.86l-1.42,3.81a2.82,2.82,0,0,1-2.7,1.72H563.25a2.87,2.87,0,0,1-2.63-1.54l-2.49-5.3c-.77-1.65.65-3.46,2.69-3.42l78.82,1.49C641.54,417.66,642.87,419.28,642.28,420.86Z"
        style="fill: rgb(59, 58, 62);"></path>
    <polygon
        points="365.62 193.35 365.62 344.98 343.6 344.98 343.6 191.66 365.62 193.35"
        style="fill: rgb(147, 0, 0);"></polygon>
    <polygon
        points="449.95 202.76 449.95 194.86 415.69 197.49 416.45 286.72 452.21 296.13 452.21 290.1 423.22 281.45 423.22 203.89 449.95 202.76"
        style="fill: rgb(23, 18, 19);"></polygon>
    <path
        d="M333.25,347.52l2.63,5.27h37.51a84.28,84.28,0,0,1,40.32,10c10,5.45,19.71,13.5,23.07,25h9.41S432.64,347.52,386,347.52C386,347.52,332.31,348.46,333.25,347.52Z"
        style="fill: rgb(254, 254, 254);"></path>
    <path
        d="M426.05,88.88s-44.61-10.16-61,11.3-21.46,62.68-22,84.14h25.41S363.37,86.62,426.05,88.88Z"
        style="fill: rgb(200, 0, 0);"></path>
    <path
        d="M436.4,205.21v70s-8.66,4.15-15.06,2.26a36.1,36.1,0,0,1-11.67-6.4V209.73S409.29,198.43,436.4,205.21Z"
        style="fill: red;"></path>
    <path
        d="M701.62,212.55v70s6.59,4.14,11.46,2.25,8.87-6.4,8.87-6.4V217.07S722.24,205.78,701.62,212.55Z"
        style="fill: rgb(200, 0, 0);"></path>
    <polygon
        points="419.27 210.29 419.27 270.43 411.93 265.92 411.93 210.29 419.27 210.29"
        style="fill: rgb(254, 254, 255);"></polygon>
    <path
        d="M372.4,134.62l7.72-16.56s51,1.88,67.39,26.16l10.73,22-10.17,3.38S428.31,130.1,372.4,134.62Z"
        style="fill: rgb(255, 115, 119);"></path>
    <path
        d="M405.53,111.09c1.69,0,23.72-6.77,34.45-2.82s88.66,22,103.34,22,82.44,7.91,89.22,9,15.25,9,15.25,9L543.32,137.63S462,125.78,451.84,124.08,405.53,111.09,405.53,111.09Z"
        style="fill: rgb(255, 115, 119);"></path>
    <path
        d="M361.39,96.5s22.59-9,44.05-5.08,50.25,14.68,62.68,15.25,100.52,7.91,100.52,7.91l-.57-6.78L458,95.94,407.13,80.13S367,78.43,361.39,96.5Z"
        style="fill: rgb(255, 115, 119);"></path>
    <polygon
        points="512.45 319.85 515.86 326.31 677.04 328.13 677.91 323.23 512.45 319.85"
        style="fill: red;"></polygon>
    <path
        d="M335.32,367.28,341,377.45s62.11-4.9,85.08,30.11c0,0,2.63-22.59-21.46-30.87S335.32,367.28,335.32,367.28Z"
        style="fill: rgb(255, 115, 119);"></path>
    <path
        d="M471.22,413.59l.87,91.26-27.67.37-2-101a7,7,0,0,1,7-7h75.63l3.39,8.47H476.87S470.66,409.63,471.22,413.59Z"
        style="fill: rgb(147, 0, 0);"></path>
    <rect x="413.62" y="336.03" width="22.96" height="9.79"
        style="fill: rgb(23, 18, 19);"></rect>
    <path
        d="M516,430.31l9.45,29h-39s-8.75-1.13-9.6-8.19-1.13-30.49-1.13-30.49L507,423.19A10.36,10.36,0,0,1,516,430.31Z"
        style="fill: rgb(254, 254, 255);"></path>
    <path
        d="M679.47,427.65l-10.22,31.68h27.89a8.83,8.83,0,0,0,6.87-8.19c.61-7.06.72-28.42.72-28.42l-19.94.51A6.46,6.46,0,0,0,679.47,427.65Z"
        style="fill: rgb(254, 254, 255);"></path>
    <path
        d="M471.79,469.49h230.4s3.39,2.26,2.82,5.08-7.9,4-7.9,4H489.86S476.87,475.7,471.79,469.49Z"
        style="fill: rgb(254, 254, 255);"></path>
    <polygon
        points="649.11 447.85 642.33 463.28 559.88 462.15 551.98 446.34 649.11 447.85"
        style="fill: rgb(23, 18, 19);"></polygon>
    <polygon
        points="692.97 351.09 684.68 390.25 697.48 390.62 700.12 346.95 692.97 351.09"
        style="fill: rgb(23, 18, 19);"></polygon>
    <polygon
        points="671.13 407.38 692.97 408.13 693.72 399.47 675.27 397.59 671.13 407.38"
        style="fill: rgb(147, 0, 0);"></polygon>
    <polygon
        points="505.48 388.74 495.32 343.6 483.27 338.29 486.66 388.74 505.48 388.74"
        style="fill: rgb(23, 18, 19);"></polygon>
    <path class="cls-11" d="M372.4,134.62s38.21-10.92,57.41-4.52c0,0-11.29-10.91-49.69-12Z"
        style="fill: rgb(255, 207, 211);"></path>
    <path class="cls-11"
        d="M405.53,111.09A70.23,70.23,0,0,1,434,106.76c15.06,1.13,81.7,20,81.7,20L446,115.42Z"
        style="fill: rgb(255, 207, 211);"></path>
    <polygon
        points="491.51 485.65 708.14 484.52 708.4 497.54 692.59 505.07 471.74 504.85 472.87 486.21 491.51 485.65"
        style="fill: rgb(200, 0, 0);"></polygon>
</svg>